<svg width="18" height="18" viewBox="0 0 18 18" fill="none" xmlns="http://www.w3.org/2000/svg">
<rect x="0.5" y="0.5" width="17" height="17" fill="#00B61E" stroke="#00B61E"/>
<path d="M6.76455 11.7313L12.7677 5.72813C12.9093 5.58646 13.0746 5.51562 13.2635 5.51562C13.4524 5.51562 13.6177 5.58646 13.7593 5.72813C13.901 5.86979 13.9718 6.03814 13.9718 6.23317C13.9718 6.42819 13.901 6.59631 13.7593 6.7375L7.26038 13.2542C7.11871 13.3958 6.95344 13.4667 6.76455 13.4667C6.57566 13.4667 6.41038 13.3958 6.26872 13.2542L3.22288 10.2083C3.08122 10.0667 3.01321 9.89856 3.01888 9.704C3.02455 9.50945 3.09845 9.3411 3.24059 9.19896C3.38273 9.05682 3.55108 8.98599 3.74563 8.98646C3.94019 8.98693 4.1083 9.05776 4.24996 9.19896L6.76455 11.7313Z" fill="white"/>
</svg>
