<svg width="30" height="31" viewBox="0 0 30 31" fill="none" xmlns="http://www.w3.org/2000/svg">
<path d="M5 23C4.64584 23 4.34917 22.88 4.11 22.64C3.87084 22.4 3.75084 22.1033 3.75 21.75C3.74917 21.3967 3.86917 21.1 4.11 20.86C4.35084 20.62 4.6475 20.5 5 20.5H25C25.3542 20.5 25.6513 20.62 25.8913 20.86C26.1313 21.1 26.2508 21.3967 26.25 21.75C26.2492 22.1033 26.1292 22.4004 25.89 22.6412C25.6508 22.8821 25.3542 23.0017 25 23H5ZM5 16.75C4.64584 16.75 4.34917 16.63 4.11 16.39C3.87084 16.15 3.75084 15.8533 3.75 15.5C3.74917 15.1467 3.86917 14.85 4.11 14.61C4.35084 14.37 4.6475 14.25 5 14.25H25C25.3542 14.25 25.6513 14.37 25.8913 14.61C26.1313 14.85 26.2508 15.1467 26.25 15.5C26.2492 15.8533 26.1292 16.1504 25.89 16.3913C25.6508 16.6321 25.3542 16.7517 25 16.75H5ZM5 10.5C4.64584 10.5 4.34917 10.38 4.11 10.14C3.87084 9.9 3.75084 9.60333 3.75 9.25C3.74917 8.89667 3.86917 8.6 4.11 8.36C4.35084 8.12 4.6475 8 5 8H25C25.3542 8 25.6513 8.12 25.8913 8.36C26.1313 8.6 26.2508 8.89667 26.25 9.25C26.2492 9.60333 26.1292 9.90042 25.89 10.1412C25.6508 10.3821 25.3542 10.5017 25 10.5H5Z" fill="white"/>
</svg>
