<svg width="33" height="33" viewBox="0 0 33 33" fill="none" xmlns="http://www.w3.org/2000/svg">
<path d="M16.104 0C25.438 0 33 7.38705 33 16.5C33 25.6129 25.4364 33 16.104 33C10.8389 33 5.9697 30.6289 2.7885 26.6541C2.69932 26.5431 2.63337 26.4153 2.59456 26.2783C2.55574 26.1413 2.54486 25.9979 2.56256 25.8566C2.58027 25.7153 2.62618 25.579 2.69759 25.4558C2.769 25.3326 2.86444 25.225 2.97825 25.1394C3.21032 24.9628 3.50201 24.8836 3.79153 24.9184C4.08104 24.9532 4.34564 25.0993 4.52925 25.3258C5.92091 27.0554 7.6842 28.4494 9.68827 29.4043C11.6923 30.3592 13.8857 30.8505 16.1056 30.8418C24.2154 30.8418 30.7906 24.42 30.7906 16.5C30.7906 8.58 24.2154 2.1582 16.1056 2.1582C13.9174 2.14967 11.7546 2.62701 9.7732 3.55578C7.79182 4.48455 6.04134 5.84158 4.64805 7.52895C4.46153 7.75342 4.19489 7.89638 3.9047 7.9275C3.61451 7.95861 3.32362 7.87543 3.09375 7.6956C2.98093 7.60853 2.88678 7.49965 2.8169 7.37545C2.74702 7.25125 2.70284 7.11425 2.68698 6.97263C2.67112 6.831 2.68392 6.68763 2.7246 6.55105C2.76529 6.41447 2.83303 6.28747 2.9238 6.1776C6.10995 2.3001 10.9131 0 16.104 0ZM17.0049 11.3223L21.4714 15.7888C21.9037 16.2211 21.912 16.9109 21.4896 17.3333L17.127 21.6975C17.0246 21.7983 16.9032 21.8779 16.7699 21.9316C16.6366 21.9853 16.4939 22.0121 16.3502 22.0104C16.2065 22.0087 16.0645 21.9786 15.9325 21.9218C15.8004 21.865 15.681 21.7826 15.5809 21.6793C15.4778 21.5792 15.3956 21.4597 15.3389 21.3276C15.2822 21.1955 15.2522 21.0535 15.2507 20.9098C15.2492 20.766 15.2761 20.6234 15.33 20.4902C15.3838 20.3569 15.4635 20.2356 15.5644 20.1333L18.117 17.5791L1.1055 17.5807C0.9618 17.5829 0.819089 17.5566 0.685595 17.5034C0.5521 17.4502 0.430464 17.371 0.327697 17.2706C0.22493 17.1701 0.143065 17.0503 0.0868226 16.918C0.0305801 16.7858 0.00107221 16.6437 0 16.5C0 15.9043 0.495 15.4209 1.1055 15.4209H18.0477L15.477 12.8485C15.3739 12.7484 15.2916 12.6289 15.2349 12.4968C15.1783 12.3647 15.1483 12.2227 15.1468 12.079C15.1452 11.9352 15.1722 11.7926 15.226 11.6594C15.2799 11.5261 15.3596 11.4048 15.4605 11.3025C15.5629 11.2022 15.684 11.123 15.817 11.0696C15.9501 11.0162 16.0923 10.9896 16.2356 10.9912C16.379 10.9929 16.5206 11.0229 16.6523 11.0794C16.784 11.136 16.9033 11.2179 17.0033 11.3207" fill="#8A38F5"/>
</svg>
