<svg width="150" height="59" viewBox="0 0 150 59" fill="none" xmlns="http://www.w3.org/2000/svg">
<path d="M8.81445 19.2217H18.7504L18.7574 22.0112C18.7654 25.0504 18.7762 28.0893 18.7882 31.1283C18.7957 32.971 18.8015 34.8138 18.8058 36.6567C18.8094 38.2631 18.8149 39.8694 18.8223 41.4757C18.8263 42.3262 18.8289 43.1766 18.8302 44.027C18.8312 44.8278 18.8342 45.6286 18.8391 46.4293C18.8406 46.7228 18.8412 47.0164 18.8409 47.31C18.8406 47.7118 18.8433 48.1133 18.8467 48.515L18.8444 48.8648C18.856 49.6948 19.0396 50.3254 19.3914 51.0835C19.8481 51.4216 20.209 51.5334 20.7717 51.6156C21.1664 51.6572 21.5593 51.6891 21.9555 51.7113V52.967H8.81445V51.8683L9.35291 51.7873C9.58742 51.7491 9.82193 51.7107 10.0564 51.6721L10.4106 51.62L10.7552 51.5618L11.0704 51.5119C11.4004 51.4059 11.4004 51.4059 11.7109 51.1472C12.0611 50.78 12.0611 50.78 12.1164 50.2493L12.1385 49.6353L12.1524 49.2996C12.1653 48.9525 12.1733 48.6057 12.1798 48.2583L12.1927 47.6321C12.2007 46.9846 12.2016 46.3377 12.2007 45.6904C12.2008 45.4449 12.201 45.1994 12.2015 44.954C12.202 44.2957 12.202 43.6374 12.2015 42.9792C12.201 42.2865 12.2015 41.5939 12.2015 40.9011C12.2019 39.7398 12.2016 38.5785 12.2007 37.4171C12.2 36.0774 12.2001 34.7377 12.201 33.3982C12.2017 32.243 12.2019 31.0878 12.2015 29.9326C12.2012 29.2446 12.2012 28.5567 12.2016 27.869C12.2021 27.223 12.2018 26.5772 12.2008 25.9315C12.2008 25.6954 12.2009 25.4594 12.2012 25.2233C12.2029 23.889 12.1678 22.5939 11.9407 21.275L11.6991 20.9482C11.2241 20.7589 10.7403 20.6724 10.2367 20.5853L9.82423 20.5053C9.48812 20.4411 9.15152 20.3795 8.81445 20.3204V19.2217ZM28.8465 33.0337L28.8494 33.3249C28.8596 34.3335 28.8733 35.3417 28.8885 36.3502C28.8939 36.7256 28.8984 37.101 28.902 37.4763C28.9074 38.0188 28.9159 38.561 28.9247 39.1035L28.9279 39.6046C28.9574 41.0941 29.1869 42.4745 29.9584 43.7752C30.1191 44.0158 30.2827 44.2546 30.4491 44.4914L30.7295 44.923C31.6205 45.7957 32.7888 46.3148 33.9747 46.6888C35.3548 47.0231 36.9534 46.9718 38.3417 46.6791C39.5036 46.3487 40.5773 45.7945 41.4923 45.0156C42.2797 44.1814 42.8048 43.1531 43.0943 42.0592C43.1752 41.6986 43.251 41.3368 43.3215 40.9741L43.4298 40.5675L43.7504 40.4106C44.5568 43.0678 44.6491 45.8499 44.0709 48.5722C43.6112 50.4541 43.6112 50.4541 43.0893 51.162C41.8074 52.2536 40.2486 52.5963 38.6204 52.9105C37.9279 53.0331 37.2414 53.098 36.5388 53.1239L36.1959 53.1429C33.9713 53.2115 31.7717 52.7286 29.7744 51.7812C29.3525 51.5587 28.9362 51.3261 28.526 51.0835L28.0765 50.8198L27.7247 50.6127C27.6742 50.7186 27.6237 50.8245 27.572 50.9339C26.8577 52.3921 26.8577 52.3921 26.2824 52.81C25.8321 52.9485 25.4239 52.9871 24.9534 52.9879L24.5675 52.9885L24.1689 52.9866L23.7649 52.9885C23.4288 52.9867 23.0927 52.9795 22.7568 52.967L22.5965 52.81C22.5753 52.3635 22.5627 51.9166 22.5585 51.4696L22.5521 51.0435C22.5454 50.5758 22.5399 50.108 22.5345 49.6403L22.5221 48.667C22.5137 47.9854 22.5057 47.3038 22.4983 46.6221C22.4887 45.7497 22.4768 44.8772 22.4643 44.0049C22.455 43.334 22.4473 42.6632 22.4399 41.9924C22.4362 41.6709 22.4319 41.3494 22.4271 41.0279C22.4207 40.5769 22.4157 40.1261 22.412 39.6754L22.4048 39.2746C22.4005 38.5011 22.4827 37.8508 22.7568 37.1145C23.0286 36.7513 23.2832 36.4451 23.5981 36.1238L23.8524 35.8595C25.1218 34.5832 26.9342 32.9709 28.8465 33.0337Z" fill="#FDFDFD"/>
<path d="M41.0393 25.6329C42.4903 26.2498 43.8044 27.0312 45.0316 28.0113L45.4504 28.3436C47.1544 29.7669 48.2267 31.4852 49.0381 33.5048C50.0868 36.4304 50.2034 39.4016 49.6791 42.4512C49.1515 44.9487 47.9611 47.227 46.2361 49.1254C45.8881 49.461 45.6413 49.6575 45.1919 49.8281C45.215 49.5893 45.2383 49.3506 45.2619 49.112L45.3015 48.7091C45.3365 48.3976 45.3818 48.087 45.4355 47.7779C45.8198 44.6931 45.5693 41.5573 44.3555 38.6756C43.3706 36.4736 41.9103 34.4912 39.9235 33.0535C38.2868 32.0208 36.5183 31.0957 34.5469 30.9684C31.6927 30.846 29.07 31.1701 26.4932 32.4649C25.489 33.0287 24.6062 33.7239 23.7175 34.4465C23.451 34.6563 23.1839 34.8656 22.9163 35.0743C22.756 34.6035 22.756 34.6034 22.8467 34.1032C23.4289 31.9211 24.3841 30.2001 26.0169 28.5797C27.8262 26.92 29.9972 25.7055 32.4115 25.1273C35.2038 24.5306 38.3693 24.5737 41.0393 25.6327M20.4653 5.8603L20.9403 5.85889L21.4558 5.85983L21.9853 5.85936C22.3558 5.85936 22.7265 5.85967 23.0972 5.8603C23.6623 5.86108 24.2275 5.8603 24.7927 5.8592C25.1528 5.8592 25.5128 5.85941 25.8728 5.85983L26.3834 5.85889L26.8661 5.86046L27.2869 5.86077C27.8134 5.88478 28.3254 5.9584 28.8458 6.03766C28.9005 9.49381 28.9493 12.95 28.9922 16.4061C29.0018 17.1872 29.0124 17.9683 29.024 18.7494C29.0365 19.6274 29.0458 20.5054 29.052 21.3835C29.0547 21.6936 29.0585 22.0037 29.0635 22.3139C29.0701 22.7375 29.0727 23.161 29.0743 23.5847L29.0828 23.9512C29.0813 24.2878 29.0813 24.2877 29.006 24.8722C28.6733 25.3853 28.4302 25.6189 27.8974 25.9298C27.7244 26.0114 27.5515 26.093 27.3733 26.1769C25.6007 27.0847 24.5744 28.2896 23.4427 29.8642C23.0765 30.3657 23.0765 30.3657 22.756 30.6796L22.5958 30.5226C22.5806 30.2426 22.5732 29.9622 22.5736 29.6818C22.5728 29.4994 22.572 29.317 22.5709 29.129L22.5704 28.5169L22.568 27.8767C22.5662 27.4161 22.5648 26.9553 22.5639 26.4944C22.5623 25.7656 22.5589 25.0369 22.5554 24.308C22.5454 22.2351 22.5368 20.1623 22.5313 18.0894C22.5284 16.9454 22.5238 15.8015 22.5174 14.6575C22.5137 14.052 22.5116 13.4465 22.511 12.841C22.5108 12.271 22.5084 11.7009 22.5039 11.1308C22.5023 10.8226 22.503 10.5142 22.5038 10.2059L22.4983 9.64637L22.4967 9.162C22.4228 8.61125 22.2496 8.23691 21.9547 7.76416C21.1474 7.32139 20.2945 7.15 19.3906 6.97939V6.03766C19.7804 5.8468 20.0299 5.86077 20.4653 5.8603Z" fill="#FDFDFD"/>
<path d="M122.766 32.2199L123.171 32.2139C124.206 32.2116 125.254 32.266 126.176 32.7667C126.592 33.1375 126.891 33.4492 127.163 33.9365C127.275 34.653 127.253 35.3092 127.083 36.0162C126.772 36.487 126.772 36.487 126.442 36.8009L126.121 37.1149L126.572 37.3895C127.04 37.7128 127.276 37.9003 127.564 38.3705C127.692 39.1148 127.697 39.8815 127.44 40.5993C127.183 41.0105 126.882 41.2793 126.465 41.5347C125.099 42.1484 123.725 42.0498 122.255 42.0197L119.551 41.9805V32.4062C120.648 32.2987 121.674 32.2207 122.766 32.2199ZM121.314 33.8188V36.3301C121.834 36.3384 122.355 36.345 122.876 36.3497C123.024 36.3524 123.171 36.355 123.323 36.3575L123.755 36.3607L124.152 36.3657C124.56 36.326 124.814 36.2298 125.16 36.0162C125.355 35.6812 125.355 35.6812 125.37 35.1725L125.32 34.6036C125.059 34.2175 125.059 34.2175 124.679 33.9758C124.237 33.839 123.841 33.8 123.379 33.8034L123.013 33.805L122.636 33.8089L122.251 33.8111C121.938 33.8132 121.626 33.8158 121.314 33.8188ZM121.474 37.7427L121.314 37.8996C121.302 38.3214 121.299 38.7433 121.304 39.1652L121.306 39.5258C121.308 39.8209 121.311 40.1159 121.314 40.4109C121.915 40.4291 122.515 40.4403 123.116 40.4501L123.633 40.4661L124.131 40.4723L124.588 40.4822C125.022 40.4404 125.022 40.4404 125.365 40.1219C125.669 39.7887 125.669 39.7887 125.791 39.3221C125.832 38.839 125.832 38.839 125.631 38.4097C125.344 38.033 125.344 38.033 124.913 37.8794C124.218 37.708 123.579 37.7026 122.866 37.7133L122.466 37.7135C122.135 37.7173 121.804 37.727 121.474 37.7427Z" fill="#FCFCFC"/>
<path d="M62.4729 32.1672C62.8203 32.2493 62.8204 32.2493 63.2253 32.5908C63.6035 33.0138 63.9146 33.4334 64.2226 33.907C64.7676 34.7259 65.3449 35.5099 65.9503 36.2865C66.5194 37.0264 67.0718 37.7783 67.628 38.5275L67.7883 32.4062H69.5511C69.7232 33.2287 69.7346 34.0202 69.7327 34.8555L69.7332 35.2931C69.7332 35.5979 69.7328 35.9028 69.7322 36.2077C69.7314 36.6691 69.7322 37.1306 69.7333 37.5922C69.7346 40.8229 69.7346 40.8229 69.5511 41.8235L69.3909 41.9805C69.088 42.0233 69.088 42.0233 68.7098 42.0393L68.3367 42.0626C67.9486 41.9805 67.9486 41.9805 67.5348 41.6347C67.1898 41.2445 66.876 40.8288 66.5963 40.3913C65.5226 38.7753 64.3218 37.2444 63.1409 35.7023L62.9806 41.9805H61.2178C61.0968 41.3883 61.0373 40.9403 61.0367 40.3505L61.0353 39.8506L61.0362 39.3159L61.0357 38.7632C61.0357 38.3782 61.0361 37.9932 61.0367 37.6084C61.0375 37.0179 61.0367 36.4276 61.0356 35.8371C61.0356 35.4633 61.0358 35.0893 61.0362 34.7152L61.0353 34.1786L61.0369 33.6817L61.0372 33.2442C61.0575 32.8771 61.0575 32.8771 61.2178 32.4062C61.6285 32.205 62.0203 32.1997 62.4729 32.1672ZM91.4005 32.3223C92.2413 32.5979 92.9106 33.1154 93.5896 33.6619C93.4979 34.088 93.4242 34.2963 93.1489 34.6527L92.7883 34.9175C92.2365 34.9175 91.8559 34.6915 91.3861 34.4369C90.9074 34.1962 90.5228 34.077 89.9838 34.0543C89.3354 34.0872 88.8226 34.2502 88.2574 34.5601C87.8253 34.8731 87.5893 35.2426 87.3396 35.7023C87.0612 36.52 87.1082 37.361 87.1793 38.2136C87.3067 38.7136 87.4843 39.0727 87.8204 39.4692C88.2135 39.8468 88.5816 40.0766 89.1024 40.254C89.98 40.3612 90.7724 40.3201 91.6264 40.097L91.987 39.9401L92.1473 38.2136H89.7434C89.5832 37.2718 89.5832 37.2718 89.7434 36.644H93.9101L93.9603 38.4785L93.9822 39.0527C93.9885 39.5157 93.9795 39.9526 93.9101 40.4109C93.4723 41.014 92.9731 41.3123 92.2976 41.6273L91.8912 41.821C90.9745 42.2007 90.0878 42.2241 89.1024 42.1374C88.1229 41.9309 87.334 41.5619 86.5583 40.9407C85.8636 40.2884 85.4253 39.5673 85.096 38.6844C84.8647 37.7451 84.8171 36.8344 85.0396 35.8888C85.3365 34.9941 85.7248 34.2983 86.3899 33.6176C87.8268 32.3618 89.5011 31.9526 91.4005 32.3223ZM16.346 6.8226C17.0495 6.99038 17.5728 7.26395 18.1152 7.73293C18.5816 8.21729 18.8811 8.63684 19.1404 9.2554C19.3122 10.3023 19.2937 11.1393 18.9144 12.1321C18.6316 12.7178 18.3032 13.1617 17.7883 13.5717C17.0237 14.0088 16.2588 14.2362 15.3745 14.278C14.6739 14.2445 14.0941 14.088 13.4676 13.7801C12.733 13.3114 12.3112 12.6968 11.8788 11.9629C11.6356 11.1685 11.5957 10.4702 11.6986 9.64778C11.876 8.95922 12.1489 8.43907 12.6394 7.91453C13.7917 6.87988 14.7992 6.67208 16.346 6.8226Z" fill="#FDFDFD"/>
<path d="M95.9932 32.4062H97.9162V36.3301H102.403V32.4062H104.326V41.8235C103.846 41.9805 103.846 41.9805 102.403 41.9805V37.8997H97.9162V41.9805H96.1534L95.9932 41.8235C95.9793 41.5297 95.9732 41.2355 95.9749 40.9413V40.37L95.9775 39.7481L95.9783 39.1154C95.9789 38.5593 95.9802 38.0033 95.9821 37.4473C95.9836 36.8802 95.9847 36.3131 95.9853 35.7461C95.9869 34.6328 95.99 33.5195 95.9932 32.4062Z" fill="#FCFCFC"/>
<path d="M77.4041 32.5337C77.9746 32.756 78.4858 33.0298 79.0067 33.3478C78.8369 33.882 78.6847 34.2918 78.3656 34.7604C77.8307 34.6981 77.4503 34.6303 76.9834 34.3583C76.1818 34.0238 75.3801 34.0422 74.5195 34.1326C74.156 34.2593 74.156 34.2593 73.8785 34.4465L73.7083 34.7311L73.7182 35.0743C74.0446 35.4805 74.3384 35.7879 74.8352 35.9834C75.199 36.084 75.5632 36.1699 75.9317 36.2515C76.9788 36.5103 77.835 36.7481 78.6861 37.4287C78.9938 37.8458 79.1554 38.1495 79.2477 38.6579C79.2607 39.3093 79.2677 39.8731 78.9961 40.4764C78.5924 41.0504 78.1652 41.4142 77.5342 41.7352C76.5637 42.1533 75.7342 42.2287 74.6797 42.1373C73.4519 41.8807 72.4397 41.5161 71.4746 40.7247C71.7551 39.8222 71.7551 39.8222 72.1156 39.4691C72.5262 39.4934 72.8519 39.5931 73.2168 39.7775C74.148 40.2477 74.9318 40.3231 75.9749 40.322C76.4511 40.2846 76.4511 40.2846 76.8251 40.0142L77.0836 39.783L76.9233 38.6843C75.9078 38.2784 74.8769 38.0161 73.8121 37.7677C73.1983 37.5732 72.7786 37.3522 72.2759 36.9578C71.9797 36.5893 71.9797 36.5893 71.7951 36.173C71.6977 35.486 71.718 34.8213 71.7951 34.1326C72.0355 33.5833 72.0355 33.5833 72.4361 33.1909C73.9317 32.0953 75.6261 31.9145 77.4041 32.5337Z" fill="#FDFDFD"/>
<path d="M105.93 32.4062H113.943V33.9758H110.898V41.8235L109.295 41.9805L108.975 41.8235V33.9758H105.93V32.4062Z" fill="#FBFBFB"/>
<path d="M133.013 32.4062H141.026V33.9758H137.981V41.9805H136.218V33.9758H133.173L133.013 32.4062Z" fill="#FBFBFC"/>
<path d="M63.1412 20.1636H64.4232V22.8318H67.4681L67.6284 20.1636H68.9104V26.7557H67.6284V24.0874H64.4232L64.4333 25.1568C64.4433 26.226 64.4433 26.226 64.263 26.7557H63.1412C62.9808 25.508 62.9567 24.2745 62.9609 23.0183L62.959 22.4469L62.9596 21.8968L62.9603 21.4015C62.9798 20.9722 63.0423 20.5815 63.1412 20.1636Z" fill="#FBFBFB"/>
<path d="M70.834 20.1634L73.0375 20.1537L73.7298 20.1493L74.2769 20.148L74.8366 20.1455C75.2441 20.1606 75.575 20.2028 75.9622 20.3204C75.9142 20.6351 75.8608 20.9491 75.8019 21.2621L75.6417 21.419C74.4678 21.501 73.2838 21.3721 72.116 21.2621V22.8316L72.4917 22.8261C73.4524 22.818 74.3713 22.8454 75.3212 22.9886V23.9303H72.116V25.8138H75.9622V26.7555H70.834V20.1634Z" fill="#F9F8F9"/>
<path d="M129.486 32.4062H131.41V41.9805H129.647L129.486 41.8235C129.473 41.5297 129.466 41.2355 129.468 40.9413V40.37L129.471 39.7481L129.472 39.1154C129.472 38.5593 129.474 38.0033 129.475 37.4473C129.477 36.8802 129.478 36.3131 129.479 35.7461C129.48 34.6328 129.483 33.5195 129.486 32.4062ZM56.8903 32.4062H58.6532V41.9805H56.8903C56.5588 39.7075 56.7397 37.3634 56.8102 35.0745L56.8335 34.2922C56.852 33.6636 56.871 33.0349 56.8903 32.4062Z" fill="#FDFDFD"/>
<path d="M81.25 32.4062H83.0128V41.9805H81.25V32.4062Z" fill="#F9F9F9"/>
<path d="M56.0898 20.1636H61.8591V21.2623H59.6155V26.7557H58.3334V21.2623H56.0898V20.1636Z" fill="#F7F7F7"/>
<path d="M26.2822 28.3252L26.6027 28.6391L26.3687 28.8285L26.0618 29.0806L25.7576 29.3289C25.4451 29.5937 25.4451 29.5937 25.1604 30.0517L24.8398 29.8947L26.2822 28.3252Z" fill="#EAEAEB"/>
</svg>
