<svg width="40" height="40" viewBox="0 0 40 40" fill="none" xmlns="http://www.w3.org/2000/svg">
<path d="M25.0003 23.3332C20.5503 23.3332 11.667 25.5498 11.667 29.9998V33.3332H38.3337V29.9998C38.3337 25.5498 29.4503 23.3332 25.0003 23.3332ZM10.0003 16.6665V11.6665H6.66699V16.6665H1.66699V19.9998H6.66699V24.9998H10.0003V19.9998H15.0003V16.6665M25.0003 19.9998C26.7684 19.9998 28.4641 19.2975 29.7144 18.0472C30.9646 16.797 31.667 15.1013 31.667 13.3332C31.667 11.5651 30.9646 9.86937 29.7144 8.61912C28.4641 7.36888 26.7684 6.6665 25.0003 6.6665C23.2322 6.6665 21.5365 7.36888 20.2863 8.61912C19.036 9.86937 18.3337 11.5651 18.3337 13.3332C18.3337 15.1013 19.036 16.797 20.2863 18.0472C21.5365 19.2975 23.2322 19.9998 25.0003 19.9998Z" fill="#8A38F5"/>
</svg>
