<svg width="25" height="25" viewBox="0 0 25 25" fill="none" xmlns="http://www.w3.org/2000/svg">
<path d="M11.9792 18.75C16.1458 18.75 19.75 16.4375 21.6042 13.0208C19.75 9.60417 16.1458 7.29167 11.9792 7.29167C7.8125 7.29167 4.20833 9.60417 2.35417 13.0208C4.20833 16.4375 7.8125 18.75 11.9792 18.75ZM11.9792 6.25C16.7292 6.25 20.8333 9.01042 22.7708 13.0208C20.8333 17.0313 16.7292 19.7917 11.9792 19.7917C7.22917 19.7917 3.125 17.0313 1.1875 13.0208C3.125 9.01042 7.22917 6.25 11.9792 6.25ZM11.9792 8.33333C14.5833 8.33333 16.6667 10.4167 16.6667 13.0208C16.6667 15.625 14.5833 17.7083 11.9792 17.7083C9.375 17.7083 7.29167 15.625 7.29167 13.0208C7.29167 10.4167 9.375 8.33333 11.9792 8.33333ZM11.9792 9.375C11.0122 9.375 10.0849 9.75911 9.40117 10.4428C8.71745 11.1266 8.33333 12.0539 8.33333 13.0208C8.33333 13.9878 8.71745 14.9151 9.40117 15.5988C10.0849 16.2826 11.0122 16.6667 11.9792 16.6667C12.9461 16.6667 13.8734 16.2826 14.5572 15.5988C15.2409 14.9151 15.625 13.9878 15.625 13.0208C15.625 12.0539 15.2409 11.1266 14.5572 10.4428C13.8734 9.75911 12.9461 9.375 11.9792 9.375Z" fill="black"/>
</svg>
